# xmcd CD database file
#
# Track frame offsets:
#	150
#	19263
#	40755
#	56277
#	67713
#	91249
#	102174
#	113048
#	139411
#	154708
#	169828
#	185398
#	201225
#	209027
#	222036
#	230225
#	239575
#	251877
#	261012
#	270482
#	302557
#
# Disc length: 4370 seconds
#
# Revision: 0
# Processed by: cddbd v1.5.2PL0 Copyright (c) Steve Scherf et al.
# Submitted via: CDex 1.70beta2
#
DISCID=2d111015
DTITLE=Cash Johnny - The Johnny Cash Show - De Nieuwe Rai, Amsterdam, 26 february 1972
DYEAR=2007
DGENRE=Country
TTITLE0=A Boy Named Sue
TTITLE1=Sunday Morning Coming Down
TTITLE2=These Hands
TTITLE3=Me And Bobby McGee
TTITLE4=Orange Blossom Special
TTITLE5=I Wish I Had Someone To Love Me
TTITLE6=Cocaine Blues
TTITLE7=Folsom Prison Blues/I Walk The Line/Jackson
TTITLE8=The Man In Black
TTITLE9=I Still Miss Someone
TTITLE10=Two Feet Rising
TTITLE11=Picking Time/Detroit City
TTITLE12=I Walk The Line
TTITLE13=Jackson
TTITLE14=f I Were A Carpenter
TTITLE15=Annoucements By June Carter
TTITLE16=No Need To Worry
TTITLE17=Will The Circle Be Unbroken
TTITLE18=Daddy Sing Bass
TTITLE19=Jesus
TTITLE20=A Thing Called Love
EXTD=YEAR: 2007
EXTT0=
EXTT1=
EXTT2=
EXTT3=
EXTT4=
EXTT5=
EXTT6=
EXTT7=
EXTT8=
EXTT9=
EXTT10=
EXTT11=
EXTT12=
EXTT13=
EXTT14=
EXTT15=
EXTT16=
EXTT17=
EXTT18=
EXTT19=
EXTT20=
PLAYORDER=
